# xmcd CD database file
#
# Track frame offsets:
#	150
#	14673
#	24487
#	33437
#	48930
#	65584
#	78435
#	93028
#	107119
#	120137
#	136179
#	145659
#
# Disc length: 2130 seconds
#
# Revision: 0
# Processed by: cddbd v1.5PL3 Copyright (c) Steve Scherf et al.
# Submitted via: CDex 1.50
#
DISCID=9008500c
DTITLE=Carlos Castillo - Melodías Mágicas Volúmen I
DYEAR=1900
DGENRE=Jazz
TTITLE0=Dime que si
TTITLE1=Andalucia
TTITLE2=Madrigal
TTITLE3=Como han pasado los años
TTITLE4=La Comparsa
TTITLE5=Que nadie sepa mi sufrir
TTITLE6=El dia que me quieras
TTITLE7=Vieja Luna
TTITLE8=La leyenda del beso
TTITLE9=Temor
TTITLE10=María Bonita
TTITLE11=Todo y nada
EXTD=
EXTT0=
EXTT1=
EXTT2=
EXTT3=
EXTT4=
EXTT5=
EXTT6=
EXTT7=
EXTT8=
EXTT9=
EXTT10=
EXTT11=
PLAYORDER=
